<svg width="78" height="78" viewBox="0 0 78 78" fill="none" xmlns="http://www.w3.org/2000/svg">
<ellipse cx="39.3318" cy="39.2227" rx="38.6387" ry="38.3648" fill="#E4E4E4"/>
<path d="M37.9183 28.9714C38.0845 29.3676 38.5551 29.5622 38.9549 29.3973C39.3549 29.2324 39.5505 28.765 39.3847 28.3672C39.2194 27.9708 38.7463 27.7764 38.3472 27.9413C37.9461 28.107 37.7539 28.5733 37.9183 28.9714Z" fill="black"/>
<path d="M55.0735 47.6568H55.0473V47.1238C55.0473 43.3354 51.9406 40.2533 48.1218 40.2533C44.3032 40.2533 41.1964 43.3354 41.1964 47.1238V52.5442C41.1964 55.4627 38.8024 57.8372 35.8597 57.8372C33.7062 57.8372 31.7856 56.5511 30.9552 54.6328C31.797 54.1977 32.3736 53.3239 32.3736 52.3185V51.0983C33.7762 50.2228 34.7109 48.6742 34.7109 46.9122V43.5745C37.6173 43.1885 39.0716 40.7853 39.1371 40.6744C39.3327 40.343 39.2594 39.9199 38.9635 39.6724L35.4725 36.7523L45.9747 33.2067C47.8851 32.5616 50.0325 33.0703 51.4906 34.4401C52.3022 35.2032 53.539 36.0805 55.1778 36.4427C55.8438 36.59 57.5116 36.973 57.5116 35.8244V21.6145C57.5116 20.7394 56.539 20.8022 55.9288 20.8667C54.3332 21.0337 52.8602 21.7345 51.5372 22.9558C50.0685 24.314 47.9163 24.8051 46.0113 24.1451L33.7774 19.9031C32.5336 19.3392 31.1592 19.0307 29.7289 19.0307C24.4445 19.0307 20.0125 23.415 20.0125 28.6697C20.0125 29.7829 20.2043 30.8522 20.5558 31.8477C20.566 31.8841 20.5784 31.9196 20.5935 31.9537C21.3617 34.0503 22.8436 35.8096 24.7464 36.9418V46.9122C24.7464 48.6883 25.6958 50.2479 27.1171 51.1195V52.3185C27.1171 53.6237 28.0884 54.7079 29.3515 54.8973C30.3376 57.5844 32.9337 59.4147 35.8598 59.4147C39.6785 59.4147 42.7853 56.3326 42.7853 52.5442V47.1238C42.7853 44.2052 45.1793 41.8308 48.122 41.8308C51.0647 41.8308 53.4587 44.2052 53.4587 47.1238V47.6568H53.4326C51.7626 47.6568 50.404 49.0049 50.404 50.6618V53.895C50.404 54.3306 50.7597 54.6837 51.1984 54.6837H51.9839V56.0271C51.9839 56.4627 52.3395 56.8158 52.7783 56.8158C53.217 56.8158 53.5726 56.4627 53.5726 56.0271V54.6837H54.8633V56.0271C54.8633 56.4627 55.219 56.8158 55.6577 56.8158C56.0965 56.8158 56.4521 56.4627 56.4521 56.0271V54.6837H57.3077C57.7465 54.6837 58.1021 54.3306 58.1021 53.895V50.6618C58.102 49.0049 56.7434 47.6568 55.0735 47.6568ZM34.7109 41.9785V38.1779L37.3705 40.4025C36.8996 40.944 36.0125 41.7372 34.7109 41.9785ZM51.9924 32.7963V24.6284C52.5576 24.2136 53.038 23.7048 53.6311 23.3239C54.3238 22.879 55.1045 22.5715 55.9229 22.4567V34.9755C55.0851 34.8525 54.2838 34.5315 53.5756 34.0737C52.9996 33.7015 52.5361 33.2075 51.9924 32.7963ZM22.5389 32.4252H25.6192C26.0579 32.4252 26.4136 32.0721 26.4136 31.6364C26.4136 31.2008 26.0579 30.8477 25.6192 30.8477H21.9028C21.7757 30.399 21.687 29.9348 21.6401 29.4584H25.5407C25.9794 29.4584 26.3351 29.1053 26.3351 28.6697C26.3351 28.2341 25.9794 27.8809 25.5407 27.8809H21.6401C21.6867 27.4077 21.7746 26.9464 21.9005 26.5005H25.5408C25.9795 26.5005 26.3352 26.1474 26.3352 25.7117C26.3352 25.2761 25.9795 24.923 25.5408 24.923H22.5343C23.8966 22.3598 26.6102 20.6082 29.7289 20.6082C32.9864 20.6082 35.994 22.6018 37.241 25.5885C37.3881 25.9407 37.7624 26.131 38.1253 26.0611C38.1771 26.0511 38.2287 26.0358 38.2794 26.0149C38.6847 25.8481 38.877 25.3867 38.7091 24.9843C38.3939 24.2295 37.9811 23.5123 37.4859 22.8598L45.4878 25.6344C47.11 26.1965 48.8504 26.1339 50.4036 25.5126V31.8856C48.8486 31.2417 47.0985 31.1608 45.4632 31.713L37.5578 34.382C38.015 33.7638 38.3997 33.0901 38.6978 32.3823C38.867 31.9805 38.6761 31.5184 38.2713 31.3504C37.8727 31.185 37.3988 31.3764 37.2314 31.7737C36.0199 34.6502 33.1452 36.6185 30.0085 36.7261C26.9236 36.8296 23.9825 35.1333 22.5389 32.4252ZM26.3352 37.7021C28.511 38.5047 30.9456 38.5064 33.1222 37.7044V42.8394V46.9121C33.1222 48.2449 32.3369 49.3992 31.2012 49.9439C30.3813 50.3376 29.414 50.3811 28.5593 50.0716C27.2625 49.5981 26.3352 48.3605 26.3352 46.9121V37.7021ZM28.7059 52.3185V51.7514C29.3874 51.8924 30.1042 51.8903 30.7848 51.7445V52.3186C30.7848 52.8869 30.3187 53.3492 29.7458 53.3492C29.1724 53.3491 28.7059 52.8868 28.7059 52.3185ZM56.5133 53.1062H51.9926V50.6618C51.9926 49.8747 52.6385 49.2343 53.4324 49.2343H55.0735C55.8674 49.2343 56.5133 49.8747 56.5133 50.6618V53.1062Z" fill="black"/>
</svg>
