<svg width="78" height="78" viewBox="0 0 78 78" fill="none" xmlns="http://www.w3.org/2000/svg">
<ellipse cx="38.874" cy="38.9984" rx="38.6387" ry="38.3648" fill="#E4E4E4"/>
<path d="M49.8894 25.2006C46.6192 25.2006 43.958 27.8429 43.958 31.0899C43.958 31.555 44.337 31.9313 44.8054 31.9313C45.2737 31.9313 45.6527 31.555 45.6527 31.0899C45.6527 28.7705 47.5534 26.8832 49.8894 26.8832C50.3578 26.8832 50.7368 26.5069 50.7368 26.0419C50.7367 25.5769 50.3578 25.2006 49.8894 25.2006Z" fill="black"/>
<path d="M29.2023 32.4241C28.5411 33.0798 28.5411 34.1479 29.2023 34.8036C29.5324 35.1314 29.9669 35.2957 30.4005 35.2957C30.834 35.2957 31.2685 35.1315 31.5986 34.8036C32.2598 34.1479 32.2598 33.0798 31.5986 32.4241C30.9383 31.7685 29.8627 31.7685 29.2023 32.4241Z" fill="black"/>
<path d="M46.1492 51.6303C46.4793 51.9581 46.9138 52.1224 47.3474 52.1224C47.7809 52.1224 48.2154 51.9581 48.5455 51.6303C49.2067 50.9746 49.2067 49.9065 48.5455 49.2508C47.8852 48.5951 46.8095 48.5951 46.1491 49.2508C45.488 49.9065 45.488 50.9746 46.1492 51.6303Z" fill="black"/>
<path d="M56.4817 24.5447C54.1337 22.2134 50.7676 21.3095 47.4811 22.1345C43.5009 23.1297 40.7217 26.7626 40.5653 31.1753C40.5491 31.634 40.4023 32.1172 40.1697 32.6055C35.4948 28.9475 30.9191 26.8592 27.832 26.8842C26.5508 26.9195 25.5261 27.309 24.7862 28.0437C24.0464 28.7783 23.654 29.7956 23.6184 31.0685C23.5503 33.61 24.9371 37.0219 27.3634 40.6319C25.2419 41.0478 23.2838 42.0351 21.7587 43.5499C17.4632 47.8148 17.4632 54.7551 21.7587 59.02C23.9065 61.1524 26.7279 62.219 29.5493 62.219C32.3707 62.219 35.1922 61.1524 37.3399 59.02C38.8664 57.5037 39.8611 55.5588 40.2794 53.4519C43.8283 55.8031 47.1876 57.1752 49.7256 57.1752C49.7885 57.1752 49.8505 57.1744 49.9126 57.1727C51.1938 57.1391 52.2185 56.7487 52.9575 56.0149C53.6974 55.2803 54.0905 54.263 54.1245 52.9917C54.2076 49.9164 52.055 45.3827 48.3635 40.7399C48.855 40.5092 49.3415 40.3637 49.8033 40.3477C54.2469 40.1924 57.9068 37.4329 58.9091 33.4804C59.7368 30.2163 58.8297 26.876 56.4817 24.5447ZM36.1434 57.8258C32.5091 61.4344 26.5959 61.4344 22.9616 57.8258C19.3273 54.2173 19.3273 48.346 22.9616 44.7375C24.4269 43.2826 26.3599 42.3672 28.4442 42.1306C28.8373 42.6606 29.2424 43.1892 29.6765 43.7218C25.4499 43.6022 21.9258 47.0685 21.9265 51.2816C21.9265 55.4571 25.3473 58.8536 29.5525 58.8536C33.7577 58.8536 37.1786 55.457 37.1786 51.2816C37.1786 51.2419 37.1679 51.2006 37.1672 51.1609C37.7033 51.5917 38.2354 51.9921 38.7689 52.3821C38.5306 54.4518 37.6086 56.3703 36.1434 57.8258ZM35.1761 49.4824C35.383 50.1027 35.4839 50.6934 35.4839 51.2817C35.4839 54.5288 32.8227 57.1711 29.5525 57.1711C26.2824 57.171 23.6212 54.5287 23.6212 51.2816C23.6212 48.0346 26.2824 45.3923 29.5526 45.3923C30.1451 45.3923 30.74 45.4925 31.3648 45.6979C31.9548 46.3494 32.5697 46.9994 33.2176 47.6427C33.2176 47.6427 33.2176 47.6427 33.2176 47.6435C33.8654 48.2853 34.5199 48.8965 35.1761 49.4824ZM52.4282 52.943C52.4067 53.7695 52.1808 54.4005 51.7571 54.8204C51.3351 55.2402 50.6996 55.4645 49.8663 55.4859C47.4419 55.5672 43.897 53.9792 40.1753 51.3232C40.1647 51.3149 40.161 51.3011 40.15 51.2932C39.2038 50.62 38.2804 49.8955 37.3765 49.1401C37.2767 49.0559 37.177 48.9761 37.0774 48.8906C36.1642 48.1142 35.2725 47.3036 34.4156 46.4531C33.5575 45.6007 32.7387 44.7129 31.9544 43.803C31.8745 43.711 31.7997 43.6191 31.7209 43.527C30.9562 42.6256 30.2232 41.7037 29.5408 40.7592C29.5334 40.7489 29.52 40.7456 29.512 40.7357C26.845 37.0489 25.2519 33.5373 25.3174 31.1135C25.3398 30.2861 25.5657 29.6536 25.9885 29.2337C26.4114 28.8139 27.0486 28.5895 27.881 28.5674C30.5978 28.4668 34.9017 30.5841 39.2632 34.0329C38.566 34.9237 37.6805 35.7688 36.8244 36.4434C35.9075 37.1672 35.6163 38.458 36.1317 39.5129C36.5579 40.3839 37.2753 41.6303 38.2741 42.622C39.2729 43.6137 40.5282 44.326 41.4053 44.7491C41.7579 44.9192 42.1368 45.0006 42.5116 45.0006C43.268 45.0006 44.0094 44.6703 44.4968 44.0615C45.1761 43.2116 46.0273 42.3324 46.9242 41.6403C50.3962 45.9725 52.5018 50.2588 52.4282 52.943ZM57.2632 33.0689C56.4473 36.2872 53.4245 38.536 49.743 38.665C46.7889 38.7677 43.9647 42.0205 43.1696 43.0146C42.9312 43.3137 42.5001 43.4073 42.1451 43.2356C41.3855 42.8692 40.3048 42.2587 39.4723 41.4321C38.6399 40.6056 38.0251 39.5326 37.656 38.7783C37.4839 38.4258 37.5774 37.9986 37.8786 37.7611C38.8798 36.9716 42.1558 34.1673 42.2593 31.2342C42.3892 27.5781 44.654 24.5775 47.8944 23.7674C48.5556 23.6022 49.2201 23.5209 49.8746 23.5209C51.8978 23.5209 53.8291 24.294 55.2814 25.7351C57.2028 27.6438 57.9442 30.3855 57.2632 33.0689Z" fill="black"/>
</svg>
