<svg width="78" height="77" viewBox="0 0 78 77" fill="none" xmlns="http://www.w3.org/2000/svg">
<ellipse cx="39.1261" cy="38.5568" rx="38.6387" ry="38.3648" fill="#E4E4E4"/>
<path d="M27.8 52.8775H22.9707C22.5319 52.8775 22.1763 53.2306 22.1763 53.6663C22.1763 54.1019 22.5319 54.455 22.9707 54.455H27.7999C28.2387 54.455 28.5943 54.1019 28.5943 53.6663C28.5943 53.2306 28.2387 52.8775 27.8 52.8775Z" fill="black"/>
<path d="M32.1102 53.3648C31.9803 53.0497 31.6472 52.8503 31.3058 52.8809C30.9773 52.9105 30.6954 53.1463 30.6096 53.4622C30.5245 53.7758 30.6494 54.1182 30.9145 54.3075C31.183 54.4991 31.5569 54.5017 31.8286 54.3149C32.1323 54.1063 32.2523 53.7035 32.1102 53.3648Z" fill="black"/>
<path d="M31.3913 48.9264H21.5882C21.1495 48.9264 20.7938 49.2795 20.7938 49.7151C20.7938 50.1508 21.1495 50.5039 21.5882 50.5039H31.3913C31.83 50.5039 32.1856 50.1508 32.1856 49.7151C32.1856 49.2795 31.83 48.9264 31.3913 48.9264Z" fill="black"/>
<path d="M28.3371 45.764C28.3371 45.3283 27.9814 44.9752 27.5427 44.9752H20.6011C20.1624 44.9752 19.8068 45.3283 19.8068 45.764C19.8068 46.1996 20.1624 46.5527 20.6011 46.5527H27.5427C27.9814 46.5527 28.3371 46.1996 28.3371 45.764Z" fill="black"/>
<path d="M59.5291 48.8288C59.3948 44.3572 55.6894 40.7607 51.154 40.7607H47.1233L44.8305 27.0889C44.7103 26.2667 44.2702 25.5474 43.5902 25.0624C42.9077 24.5756 42.0767 24.3915 41.2506 24.544C39.5664 24.855 39.1029 24.9216 38.9765 24.9336C38.7425 24.9558 38.5304 25.0798 38.3974 25.2723C38.2643 25.4647 38.2239 25.7057 38.287 25.9306L38.4844 26.6337C37.0415 26.4621 35.7203 25.6822 34.8815 24.4617L34.3961 23.7566C34.2684 23.571 34.0671 23.4484 33.8426 23.4194C33.6183 23.3903 33.3921 23.4579 33.2208 23.6049L29.4222 26.8644C28.9965 27.1817 28.5852 27.5953 28.1994 28.094C28.1991 28.0942 28.199 28.0945 28.1987 28.0948C27.1212 29.4841 26.1888 31.5659 25.6528 33.7544C25.0647 33.8086 24.4963 34.0793 24.0815 34.5565L23.1617 35.6148C22.7482 36.0906 22.5465 36.6977 22.5938 37.3245C22.6412 37.9512 22.9317 38.5217 23.4122 38.931L39.0592 52.2602C39.3244 52.4817 39.6009 52.6877 39.8872 52.8775H34.9823C34.5435 52.8775 34.1879 53.2306 34.1879 53.6663C34.1879 54.1019 34.5435 54.455 34.9823 54.455H58.1141C59.4181 54.455 60.479 53.4016 60.479 52.1069V50.7091C60.479 49.9408 60.1054 49.2574 59.5291 48.8288ZM44.1248 32.4845H41.776L41.1915 30.4019H43.7755L44.1248 32.4845ZM44.3893 34.062L44.7559 36.2481H42.8325L42.2188 34.062H44.3893ZM45.0205 37.8256L45.5826 41.1775C45.3378 41.2492 45.0748 41.246 44.818 41.1636C44.3906 41.0264 44.0784 40.7006 43.9596 40.2636L43.2753 37.8256H45.0205ZM41.5411 26.095C41.9375 26.0217 42.3359 26.11 42.6633 26.3436C42.9907 26.5771 43.2023 26.9241 43.259 27.3205C43.2599 27.3268 43.2608 27.3331 43.2619 27.3393L43.511 28.8244H40.7487L40.0573 26.3616C40.4028 26.3021 40.8795 26.2171 41.5411 26.095ZM30.4394 28.0764L33.5865 25.376C34.8113 27.1412 36.8085 28.1971 38.9368 28.2453L39.0994 28.8244H39.0523C38.6135 28.8244 38.2579 29.1775 38.2579 29.6131C38.2579 30.0487 38.6135 30.4019 39.0523 30.4019H39.5422L40.1267 32.4845H39.6105C39.1717 32.4845 38.8161 32.8376 38.8161 33.2732C38.8161 33.7088 39.1717 34.062 39.6105 34.062H40.5696L41.1833 36.2481H40.246C39.8072 36.2481 39.4516 36.6012 39.4516 37.0368C39.4516 37.4724 39.8072 37.8256 40.246 37.8256H41.6261L42.4275 40.6806C42.6834 41.6227 43.3943 42.3643 44.3293 42.6645C44.4608 42.7067 44.5937 42.7392 44.7273 42.7622L43.9534 43.8715C43.7035 44.2296 43.7934 44.721 44.1539 44.969C44.2919 45.0639 44.4496 45.1095 44.6056 45.1095C44.8574 45.1095 45.105 44.991 45.2593 44.7699L46.956 42.3381H51.1539C54.6534 42.3381 57.543 44.9802 57.9057 48.3609H45.1211C44.3552 48.3609 43.6099 48.0929 43.0215 47.6061L31.7279 37.9854C33.0682 36.9226 33.8673 35.2737 33.8673 33.4702C33.8673 32.0869 33.3645 30.7506 32.4515 29.7075C31.8626 29.0347 31.1289 28.5118 30.3138 28.1735C30.3401 28.1529 30.3665 28.1329 30.3929 28.1135C30.4089 28.1017 30.4244 28.0893 30.4394 28.0764ZM29.1721 29.4498C30.9721 29.9303 32.2785 31.583 32.2785 33.4702C32.2785 34.8942 31.6042 36.1809 30.4913 36.9321L27.4117 34.3086C27.3411 34.2485 27.2679 34.1933 27.1926 34.1428C27.6269 32.3573 28.3412 30.665 29.1721 29.4498ZM58.8902 52.1069C58.8902 52.5318 58.5421 52.8775 58.1141 52.8775H45.1211C43.2803 52.8775 41.4906 52.2296 40.0878 51.058L24.4467 37.7338C24.289 37.5994 24.1936 37.4122 24.1781 37.2066C24.1626 37.0008 24.2288 36.8015 24.3645 36.6454L25.2843 35.5872C25.4375 35.411 25.6543 35.3206 25.8725 35.3206C26.0514 35.3206 26.2312 35.3815 26.3772 35.5058L41.9912 48.8069C41.9937 48.8091 41.9963 48.8113 41.9989 48.8134C42.8731 49.5389 43.9819 49.9385 45.1211 49.9385H58.1141C58.5421 49.9385 58.8902 50.2842 58.8902 50.7091V52.1069Z" fill="black"/>
</svg>
