<svg width="80" height="77" viewBox="0 0 80 77" fill="none" xmlns="http://www.w3.org/2000/svg">
<ellipse cx="40.0001" cy="38.358" rx="39.7015" ry="38.2346" fill="#E4E4E4"/>
<path d="M58.255 20.5745C56.6347 19.0655 54.5011 18.2346 52.2472 18.2346C49.9933 18.2346 47.8596 19.0656 46.2392 20.5745L46.1305 20.6759C43.493 23.1321 42.7537 26.9381 44.2913 30.1465L47.014 35.8282V54.9653C47.014 56.9013 48.6494 58.4763 50.6597 58.4763H53.4883C55.4985 58.4763 57.1339 56.9013 57.1339 54.9653V35.8366L59.9995 30.2365C61.6654 26.9807 60.9644 23.0977 58.255 20.5745ZM55.5016 54.9652C55.5016 56.0344 54.5984 56.9043 53.4882 56.9043H50.6596C49.5493 56.9043 48.6461 56.0344 48.6461 54.9652V42.9926H52.2387V48.0585C52.2387 48.4925 52.6041 48.8445 53.0549 48.8445C53.5056 48.8445 53.871 48.4926 53.871 48.0585V42.9926H55.5015V54.9652H55.5016ZM48.6461 41.4207V36.4226H49.8842C49.8854 36.4226 49.8865 36.4228 49.8877 36.4228C49.889 36.4228 49.8903 36.4226 49.8915 36.4226H54.4939C54.4952 36.4226 54.4965 36.4228 54.4977 36.4228C54.499 36.4228 54.5001 36.4226 54.5013 36.4226H55.5015V41.4207H48.6461ZM58.5352 29.5418L55.8187 34.8507H55.4602L56.118 31.05C56.1921 30.6219 55.8917 30.2169 55.4471 30.1455C55.0026 30.0743 54.582 30.3634 54.5079 30.7917L53.8054 34.8507H52.89V30.9208C52.89 30.4868 52.5247 30.1348 52.0739 30.1348C51.6231 30.1348 51.2577 30.4867 51.2577 30.9208V34.8507H50.58L49.8775 30.7916C49.8034 30.3636 49.3828 30.0743 48.9382 30.1455C48.4936 30.2169 48.1933 30.6219 48.2674 31.0501L48.9252 34.8507H48.343L45.7731 29.4879C44.5261 26.8854 45.1256 23.7983 47.2652 21.8058L47.3739 21.7045C50.1066 19.1598 54.3876 19.1598 57.1202 21.7045C59.318 23.7512 59.8867 26.9008 58.5352 29.5418Z" fill="black"/>
<path d="M30.0408 43.3933V39.9271C30.0408 39.284 29.6373 38.7305 29.0615 38.4874V33.6308C29.0615 32.7601 28.5665 31.9638 27.7695 31.5524L25.1579 30.2048C24.3919 29.8096 23.4896 29.8301 22.7439 30.2601C21.9983 30.6899 21.5532 31.4461 21.5532 32.2831V38.4873C20.9774 38.7304 20.5739 39.2839 20.5739 39.9271V43.3932C19.7501 43.4724 19.1047 44.1435 19.1047 44.9573V56.1181C19.1047 57.4182 20.2031 58.476 21.5531 58.476H29.0614C30.4115 58.476 31.5098 57.4182 31.5098 56.1181V44.9573C31.5099 44.1435 30.8645 43.4725 30.0408 43.3933ZM23.1854 32.2831C23.1854 31.881 23.463 31.6776 23.5822 31.6087C23.7016 31.5399 24.0189 31.4005 24.3869 31.5903L26.9985 32.9379C27.2642 33.075 27.4291 33.3405 27.4291 33.6307V38.3551H23.1854V32.2831ZM22.206 39.9271H22.3692H28.2454H28.4086V43.3854H22.2061V39.9271H22.206ZM29.8776 56.1182C29.8776 56.5515 29.5115 56.9041 29.0614 56.9041H27.5924V50.9308C27.5924 50.4968 27.227 50.1448 26.7762 50.1448C26.3255 50.1448 25.9601 50.4967 25.9601 50.9308V56.9041H21.5531C21.1031 56.9041 20.737 56.5516 20.737 56.1182V44.9574H29.8776V56.1182Z" fill="black"/>
<path d="M27.3529 47.3886C27.201 47.2424 26.9913 47.1583 26.7759 47.1583C26.5612 47.1583 26.3507 47.2424 26.1989 47.3886C26.0471 47.5349 25.9597 47.7376 25.9597 47.9443C25.9597 48.1511 26.0471 48.3538 26.1989 48.4999C26.3507 48.6461 26.5612 48.7303 26.7759 48.7303C26.9913 48.7303 27.201 48.6462 27.3529 48.4999C27.5047 48.3538 27.592 48.1511 27.592 47.9443C27.592 47.7376 27.5047 47.5348 27.3529 47.3886Z" fill="black"/>
<path d="M43.0985 37.5695H39.3444V29.8669H40.7328C41.1835 29.8669 41.5489 29.515 41.5489 29.0809C41.5489 28.6469 41.1836 28.2949 40.7328 28.2949H39.3444V27.3518H40.7328C41.1835 27.3518 41.5489 26.9999 41.5489 26.5658C41.5489 26.1318 41.1836 25.7798 40.7328 25.7798H39.3444V24.8367H40.7328C41.1835 24.8367 41.5489 24.4848 41.5489 24.0507C41.5489 23.6166 41.1836 23.2647 40.7328 23.2647H39.3444V22.3216H40.7328C41.1835 22.3216 41.5489 21.9697 41.5489 21.5356C41.5489 21.1015 41.1836 20.7496 40.7328 20.7496H39.3444V19.8065H40.7328C41.1835 19.8065 41.5489 19.4546 41.5489 19.0205C41.5489 18.5864 41.1836 18.2345 40.7328 18.2345H36.3238C35.8731 18.2345 35.5077 18.5864 35.5077 19.0205C35.5077 19.4546 35.873 19.8065 36.3238 19.8065H37.7122V20.7496H36.3238C35.873 20.7496 35.5076 21.1015 35.5076 21.5356C35.5076 21.9697 35.8729 22.3216 36.3238 22.3216H37.7122V23.2647H36.3238C35.873 23.2647 35.5076 23.6166 35.5076 24.0507C35.5076 24.4848 35.8729 24.8367 36.3238 24.8367H37.7122V25.7798H36.3238C35.873 25.7798 35.5076 26.1318 35.5076 26.5658C35.5076 26.9999 35.8729 27.3518 36.3238 27.3518H37.7122V28.2949H36.3238C35.873 28.2949 35.5076 28.6469 35.5076 29.0809C35.5076 29.515 35.8729 29.8669 36.3238 29.8669H37.7122V37.5695H33.958C33.5073 37.5695 33.1418 37.9214 33.1418 38.3555V47.135C33.1418 51.001 34.2416 54.7918 36.3224 58.0977C36.4703 58.3327 36.7349 58.4762 37.0203 58.4762H40.0362C40.3216 58.4762 40.5863 58.3327 40.7342 58.0977C42.8149 54.7917 43.9147 51.0009 43.9147 47.135V38.3554C43.9146 37.9213 43.5493 37.5695 43.0985 37.5695ZM42.2824 47.1349C42.2824 50.5667 41.3459 53.9349 39.5705 56.9043H37.4858C35.7104 53.9348 34.774 50.5667 34.774 47.1349V42.5996H39.692C40.1427 42.5996 40.5082 42.2477 40.5082 41.8136C40.5082 41.3796 40.1428 41.0276 39.692 41.0276H34.774V39.1413H42.2823V47.1349H42.2824Z" fill="black"/>
<path d="M53.6324 50.2535C53.4806 50.1073 53.2701 50.0232 53.0554 50.0232C52.8407 50.0232 52.6302 50.1073 52.4784 50.2535C52.3266 50.3998 52.2393 50.6024 52.2393 50.8092C52.2393 51.016 52.3266 51.2187 52.4784 51.3648C52.6302 51.5118 52.8407 51.5952 53.0554 51.5952C53.2701 51.5952 53.4806 51.5118 53.6324 51.3648C53.7842 51.2187 53.8715 51.0167 53.8715 50.8092C53.8715 50.6024 53.7842 50.3998 53.6324 50.2535Z" fill="black"/>
</svg>
