<svg width="82" height="78" viewBox="0 0 82 78" fill="none" xmlns="http://www.w3.org/2000/svg">
<ellipse cx="41.0042" cy="38.9995" rx="40.271" ry="38.3655" fill="#E4E4E4"/>
<path d="M56.1283 32.36V24.7393C56.1283 20.3586 52.9191 18.8071 49.9015 18.8071H31.9872C28.9696 18.8071 25.7604 20.3586 25.7604 24.7393V32.36C23.557 32.9075 21.9285 34.7785 21.9285 37.0601V49.2896C21.9285 52.8946 24.4671 54.3092 26.9579 54.4461V57.5491C26.9579 58.4618 27.7242 59.1919 28.6822 59.1919H30.4545C31.4125 59.1919 32.1788 58.4618 32.1788 57.5491V54.4461H49.7578V57.5491C49.7578 58.4618 50.5241 59.1919 51.4821 59.1919H53.2544C54.2124 59.1919 54.9787 58.4618 54.9787 57.5491V54.4461C58.667 54.2636 60.0081 51.7082 60.0081 49.2896V37.0145C59.9123 34.7785 58.2838 32.8619 56.1283 32.36ZM27.4847 24.7393C27.4847 20.9975 30.3108 20.4042 31.9872 20.4042H49.9015C51.5779 20.4042 54.404 20.9518 54.404 24.6937V32.1774C51.8174 32.4056 49.7578 34.4591 49.7578 37.0145V38.1553H32.1309V37.0145C32.1309 34.4591 30.0713 32.4056 27.4847 32.1774V24.7393ZM49.7099 39.7981V45.4565H32.1309V39.7981H49.7099ZM30.4545 57.5491H28.6822V54.4461H30.4545V57.5491ZM53.2065 57.5491H51.4342V54.4461H53.2065V57.5491ZM58.2838 49.2896H58.2359C58.2359 50.8868 57.6132 52.849 54.4998 52.849H53.2065H51.4342H30.4545H28.6822H27.3889C25.7125 52.849 23.6528 52.2557 23.6528 49.2896V37.0145C23.6528 35.2348 25.1856 33.7746 27.0537 33.7746C28.9217 33.7746 30.4545 35.2348 30.4545 37.0145V46.2779C30.4545 46.7342 30.8377 47.0993 31.3167 47.0993H50.6199C51.0989 47.0993 51.4821 46.7342 51.4821 46.2779V37.0145C51.4821 35.2348 53.0149 33.7746 54.883 33.7746C56.751 33.7746 58.2838 35.2348 58.2838 37.0145V49.2896V49.2896Z" fill="black"/>
</svg>
