<svg width="75" height="75" viewBox="0 0 75 75" fill="none" xmlns="http://www.w3.org/2000/svg">
<ellipse cx="37.5001" cy="37.5032" rx="37.1493" ry="37.0194" fill="#E4E4E4"/>
<path d="M42.0826 44.353C41.661 44.353 41.3188 44.694 41.3188 45.1141C41.3188 45.5342 41.661 45.8752 42.0826 45.8752C42.5042 45.8752 42.8464 45.5342 42.8464 45.1141C42.8464 44.694 42.5042 44.353 42.0826 44.353Z" fill="black"/>
<path d="M53.2334 18.0194H21.7666C19.6608 18.0194 17.9478 19.7265 17.9478 21.8248V45.1141C17.9478 47.2125 19.6608 48.9196 21.7666 48.9196H33.6812V52.4206H32.9174C31.8977 52.4206 30.9391 52.8166 30.2174 53.5355C29.496 54.2546 29.0986 55.2099 29.0986 56.226C29.0986 56.6464 29.4405 56.9871 29.8624 56.9871H45.1376C45.5594 56.9871 45.9013 56.6464 45.9013 56.226C45.9013 54.1277 44.1883 52.4206 42.0826 52.4206H41.3188V48.9196H53.2334C55.3391 48.9196 57.0522 47.2125 57.0522 45.1141V21.8248C57.0522 19.7265 55.3391 18.0194 53.2334 18.0194ZM21.7666 19.5416H53.2334C54.4969 19.5416 55.5247 20.5658 55.5247 21.8248V41.3087H52.0114V23.8037C52.0114 23.3833 51.6695 23.0426 51.2477 23.0426H45.1376C44.7157 23.0426 44.3738 23.3833 44.3738 23.8037V41.3087H40.5509C40.5428 40.5214 40.5222 39.7455 40.4894 38.9927C40.3557 35.8931 40.0511 33.8167 39.8927 32.9034C41.4686 31.7472 41.8988 29.6043 40.9354 27.9394L38.2882 23.3705C38.1516 23.135 37.8995 22.9899 37.6268 22.9899C37.3538 22.9899 37.1017 23.135 36.9654 23.3705L34.317 27.9397C33.4088 29.5094 33.7307 31.5427 35.1574 32.7426C34.9921 33.6532 34.6586 35.8039 34.5136 38.9912C34.4793 39.752 34.4575 40.5286 34.4491 41.3087H30.6262V29.8924C30.6262 29.7717 30.5975 29.6617 30.5507 29.5638C30.5486 29.56 30.5474 29.5558 30.5456 29.552L27.4906 23.4632C27.3611 23.2055 27.0968 23.0426 26.8074 23.0426C26.518 23.0426 26.2536 23.2055 26.1242 23.4632L23.0691 29.552C23.0673 29.5558 23.0661 29.56 23.0643 29.5638C23.0166 29.6626 22.9886 29.7743 22.9886 29.8924V41.3087H19.4753V21.8248C19.4753 20.5658 20.5031 19.5416 21.7666 19.5416V19.5416ZM45.9013 41.3087V24.5647H50.4839V26.0869H49.7201C49.2983 26.0869 48.9564 26.4276 48.9564 26.848C48.9564 27.2684 49.2983 27.6091 49.7201 27.6091H50.4839V29.8924H49.7201C49.2983 29.8924 48.9564 30.2331 48.9564 30.6535C48.9564 31.0738 49.2983 31.4145 49.7201 31.4145H50.4839V33.6978H49.7201C49.2983 33.6978 48.9564 34.0385 48.9564 34.4589C48.9564 34.8793 49.2983 35.22 49.7201 35.22H50.4839V38.2643H49.7201C49.2983 38.2643 48.9564 38.605 48.9564 39.0254C48.9564 39.4458 49.2983 39.7865 49.7201 39.7865H50.4839V41.3087H45.9013ZM37.6268 33.6452C37.9042 33.6452 38.1805 33.6134 38.4508 33.5539C38.5925 34.4592 38.8008 36.061 38.924 38.2643H36.0811C36.2103 36.0625 36.4283 34.4357 36.579 33.4998C36.9173 33.5958 37.2697 33.6452 37.6268 33.6452ZM37.6268 32.123C35.8812 32.123 34.7555 30.2298 35.6401 28.7005L37.6268 25.2732L39.6123 28.7002C40.4936 30.2233 39.3834 32.123 37.6268 32.123ZM36.011 39.7865H38.9911C39.0072 40.2866 39.0183 40.7953 39.0236 41.3087H35.9767C35.9823 40.7985 35.994 40.2898 36.011 39.7865ZM27.5711 41.3087V30.6535H29.0986V41.3087H27.5711ZM24.5161 41.3087V30.6535H26.0436V41.3087H24.5161ZM24.9881 29.1313L26.8074 25.5054L28.6267 29.1313H24.9881ZM44.2429 55.4649H30.7562C30.8684 55.1477 31.0516 54.857 31.2974 54.6117C31.7306 54.1803 32.3058 53.9428 32.9174 53.9428H42.0826C43.0784 53.9428 43.9278 54.579 44.2429 55.4649ZM39.7913 52.4206H35.2087V48.9196H39.7913V52.4206ZM53.2334 47.3974H21.7666C20.5031 47.3974 19.4753 46.3732 19.4753 45.1141V42.8309H55.5247V45.1141C55.5247 46.3732 54.4969 47.3974 53.2334 47.3974Z" fill="black"/>
<path d="M39.0277 44.353H34.4452C34.0233 44.353 33.6814 44.6937 33.6814 45.1141C33.6814 45.5345 34.0233 45.8752 34.4452 45.8752H39.0277C39.4496 45.8752 39.7915 45.5345 39.7915 45.1141C39.7915 44.6937 39.4496 44.353 39.0277 44.353Z" fill="black"/>
</svg>
