<svg width="40" height="42" viewBox="0 0 40 42" fill="none" xmlns="http://www.w3.org/2000/svg">
<path d="M37.2676 10.32C37.2234 9.88507 36.782 9.55181 36.256 9.55607H28.5673V7.13761C28.5673 3.19553 24.7171 0 19.9682 0C15.2189 0 11.3691 3.19553 11.3691 7.13761V9.55607H3.68048C3.15686 9.55771 2.71979 9.88769 2.66882 10.32L0.0183428 35.6126C-0.102187 36.7853 0.375191 37.9465 1.33508 38.8134C2.29458 39.68 3.64807 40.173 5.06637 40.172H34.88C36.2983 40.173 37.6517 39.68 38.6112 38.8134C39.5711 37.9465 40.0489 36.7853 39.9284 35.6126L37.2676 10.32ZM13.3924 7.13761C13.3924 4.12315 16.3365 1.67944 19.9682 1.67944C23.5999 1.67944 26.544 4.12315 26.544 7.13761V9.55607H13.3924V7.13761ZM37.1159 37.6781C36.5437 38.201 35.7308 38.4972 34.88 38.4926H5.0561C4.20528 38.4929 3.39358 38.1967 2.81819 37.6765C2.24321 37.1559 1.95749 36.4589 2.03139 35.7553L4.60085 11.2355H11.3691V16.4752C9.74215 16.8908 8.72614 18.2314 8.97945 19.6288C9.23236 21.0258 10.6787 22.059 12.3808 22.059C14.0828 22.059 15.5288 21.0258 15.7821 19.6288C16.035 18.2314 15.019 16.8908 13.3924 16.4752V11.227H26.544V16.4752C24.9171 16.8908 23.9011 18.2314 24.1544 19.6288C24.4073 21.0258 25.8536 22.059 27.5557 22.059C29.2577 22.059 30.7037 21.0258 30.957 19.6288C31.2099 18.2314 30.1939 16.8908 28.5673 16.4752V11.227H35.3253L37.8948 35.7468C37.9778 36.4533 37.6944 37.1556 37.1159 37.6781V37.6781ZM12.229 18.0372C12.3298 18.0484 12.4317 18.0484 12.5325 18.0372C13.2806 18.1042 13.8354 18.6454 13.7951 19.2689C13.7544 19.8928 13.1332 20.3816 12.3808 20.3816C11.6279 20.3816 11.0067 19.8928 10.9664 19.2689C10.9261 18.6454 11.4805 18.1042 12.229 18.0372ZM27.4039 18.0372C27.5047 18.0484 27.6067 18.0484 27.7074 18.0372C28.4555 18.1042 29.0103 18.6454 28.97 19.2689C28.9293 19.8928 28.3081 20.3816 27.5557 20.3816C26.8029 20.3816 26.1816 19.8928 26.1413 19.2689C26.101 18.6454 26.6555 18.1042 27.4039 18.0372V18.0372Z" fill="black"/>
<path d="M20.3238 38.0227C19.4838 38.0227 18.7278 37.8787 18.0558 37.5907C17.3838 37.2907 16.8558 36.8707 16.4718 36.3307C16.0878 35.7907 15.8958 35.1607 15.8958 34.4407H18.0918C18.1398 34.9807 18.3498 35.4247 18.7218 35.7727C19.1058 36.1207 19.6398 36.2947 20.3238 36.2947C21.0318 36.2947 21.5838 36.1267 21.9798 35.7907C22.3758 35.4427 22.5738 34.9987 22.5738 34.4587C22.5738 34.0387 22.4478 33.6967 22.1958 33.4327C21.9558 33.1687 21.6498 32.9647 21.2778 32.8207C20.9178 32.6767 20.4138 32.5207 19.7658 32.3527C18.9498 32.1367 18.2838 31.9207 17.7678 31.7047C17.2638 31.4767 16.8318 31.1287 16.4718 30.6607C16.1118 30.1927 15.9318 29.5687 15.9318 28.7887C15.9318 28.0687 16.1118 27.4387 16.4718 26.8987C16.8318 26.3587 17.3358 25.9447 17.9838 25.6567C18.6318 25.3687 19.3818 25.2247 20.2338 25.2247C21.4458 25.2247 22.4358 25.5307 23.2038 26.1427C23.9838 26.7427 24.4158 27.5707 24.4998 28.6267H22.2318C22.1958 28.1707 21.9798 27.7807 21.5838 27.4567C21.1878 27.1327 20.6658 26.9707 20.0178 26.9707C19.4298 26.9707 18.9498 27.1207 18.5778 27.4207C18.2058 27.7207 18.0198 28.1527 18.0198 28.7167C18.0198 29.1007 18.1338 29.4187 18.3618 29.6707C18.6018 29.9107 18.9018 30.1027 19.2618 30.2467C19.6218 30.3907 20.1138 30.5467 20.7378 30.7147C21.5658 30.9427 22.2378 31.1707 22.7538 31.3987C23.2818 31.6267 23.7258 31.9807 24.0858 32.4607C24.4578 32.9287 24.6438 33.5587 24.6438 34.3507C24.6438 34.9867 24.4698 35.5867 24.1218 36.1507C23.7858 36.7147 23.2878 37.1707 22.6278 37.5187C21.9798 37.8547 21.2118 38.0227 20.3238 38.0227Z" fill="#29A867"/>
</svg>
